<svg width="637" height="637" viewBox="0 0 637 637" fill="none" xmlns="http://www.w3.org/2000/svg">
<path d="M306.302 301.428C307.467 301.784 308.723 301.687 309.82 301.158C310.917 300.628 311.774 299.705 312.22 298.571C312.666 297.438 312.668 296.178 312.227 295.043C311.785 293.907 310.932 292.98 309.837 292.447C308.851 292.059 307.787 291.914 306.733 292.025C305.68 292.136 304.669 292.499 303.785 293.084C303.116 293.699 302.633 294.491 302.393 295.369C302.153 296.246 302.164 297.174 302.427 298.045C302.69 298.916 303.193 299.695 303.878 300.294C304.563 300.892 305.403 301.285 306.302 301.428ZM304.486 296.523C304.486 293.848 309.805 293.529 310.315 296.523C311.302 300.696 304.327 300.441 304.486 296.523ZM302.575 97.5883C297.67 103.353 298.849 110.774 306.556 114.405C308.3 113.955 310.08 113.657 311.875 113.513C313.922 113.648 315.955 113.935 317.959 114.373C320.084 113.096 321.736 111.163 322.666 108.865C323.597 106.567 323.756 104.029 323.118 101.633C322.525 99.5496 321.368 97.6705 319.774 96.2035C318.179 94.7365 316.211 93.7386 314.085 93.32C311.96 92.9015 309.76 93.0786 307.729 93.8319C305.697 94.5851 303.914 95.8851 302.575 97.5883ZM300.791 152.88C300.754 152.692 300.653 152.523 300.505 152.401C300.357 152.28 300.171 152.213 299.979 152.213C299.788 152.213 299.602 152.28 299.454 152.401C299.306 152.523 299.205 152.692 299.167 152.88C298.931 154.654 298.792 156.441 298.753 158.231C298.837 158.486 298.999 158.707 299.216 158.865C299.434 159.022 299.695 159.107 299.963 159.107C300.232 159.107 300.493 159.022 300.71 158.865C300.928 158.707 301.09 158.486 301.174 158.231C301.333 157.689 300.791 153.421 300.791 152.88ZM325.921 153.453C325.884 153.265 325.782 153.096 325.634 152.975C325.486 152.853 325.301 152.787 325.109 152.787C324.917 152.787 324.732 152.853 324.584 152.975C324.436 153.096 324.334 153.265 324.297 153.453C324.297 153.899 323.755 158.199 323.915 158.804C323.998 159.059 324.16 159.281 324.378 159.438C324.595 159.595 324.857 159.68 325.125 159.68C325.393 159.68 325.655 159.595 325.872 159.438C326.089 159.281 326.251 159.059 326.335 158.804C326.494 158.199 325.921 153.931 325.921 153.453ZM301.014 142.401C297.192 142.083 295.441 148.007 295.377 148.262C295.322 148.443 295.342 148.639 295.431 148.806C295.521 148.974 295.673 149.099 295.855 149.153C296.036 149.208 296.232 149.189 296.4 149.099C296.567 149.01 296.692 148.857 296.747 148.676C296.938 148.198 298.976 144.726 301.365 144.854C302.575 144.949 303.18 142.56 301.014 142.401ZM326.877 149.122C326.818 147.999 326.417 146.922 325.728 146.034C325.039 145.145 324.095 144.489 323.023 144.153C322.702 144.068 322.36 144.115 322.074 144.282C321.787 144.449 321.578 144.724 321.494 145.045C321.41 145.366 321.456 145.707 321.623 145.994C321.79 146.281 322.065 146.489 322.386 146.574C323.169 146.852 323.87 147.321 324.426 147.938C324.982 148.555 325.375 149.301 325.571 150.109C325.621 150.282 325.739 150.428 325.897 150.515C326.055 150.601 326.242 150.621 326.415 150.571C326.588 150.52 326.734 150.403 326.821 150.244C326.907 150.086 326.927 149.9 326.877 149.727C326.877 149.727 326.94 149.376 326.877 149.122ZM312.13 166.034C312.258 165.992 312.368 165.911 312.447 165.802C312.526 165.694 312.568 165.563 312.568 165.429C312.568 165.295 312.526 165.164 312.447 165.055C312.368 164.947 312.258 164.866 312.13 164.824C310.665 164.537 308.945 164.441 308.945 163.008C309.113 161.22 309.39 159.444 309.773 157.689C309.791 157.531 309.752 157.371 309.662 157.24C309.573 157.108 309.439 157.012 309.286 156.97C309.132 156.928 308.969 156.942 308.824 157.009C308.68 157.077 308.565 157.194 308.499 157.339C307.707 159.392 307.151 161.53 306.843 163.709C306.907 165.62 308.945 167.053 312.13 166.034ZM316.111 170.206C315.41 170.965 314.55 171.559 313.591 171.944C312.633 172.33 311.601 172.498 310.569 172.436C309.863 172.317 309.189 172.052 308.591 171.657C307.993 171.262 307.484 170.746 307.098 170.143C307.009 169.978 306.859 169.855 306.679 169.801C306.5 169.748 306.307 169.767 306.142 169.856C305.978 169.945 305.855 170.095 305.801 170.274C305.747 170.453 305.767 170.647 305.856 170.811C306.365 171.916 307.163 172.862 308.166 173.55C309.169 174.238 310.339 174.643 311.552 174.721C312.766 174.799 313.978 174.549 315.061 173.995C316.144 173.441 317.057 172.605 317.704 171.576C318.118 170.525 316.971 169.442 316.111 170.206ZM315.761 359.459C315.841 359.514 315.935 359.543 316.032 359.543C316.128 359.543 316.223 359.514 316.302 359.459C319.71 357.325 345.35 336.941 347.452 335.126C347.522 335.061 347.571 334.976 347.592 334.883C347.614 334.79 347.607 334.693 347.573 334.604C347.539 334.515 347.478 334.438 347.4 334.383C347.322 334.329 347.229 334.299 347.133 334.297C347.133 334.297 294.581 333.278 285.312 332.96C284.771 332.96 284.675 333.533 284.962 333.788C286.65 335.444 307.002 352.739 315.761 359.459ZM426.472 604.8C428.86 599.926 424.401 591.741 422.395 588.429C422.356 588.348 422.295 588.28 422.219 588.232C422.142 588.184 422.055 588.159 421.965 588.159C421.875 588.159 421.787 588.184 421.711 588.232C421.635 588.28 421.574 588.348 421.535 588.429C419.91 591.614 416.502 599.958 419.751 604.768C421.949 608.335 424.752 608.59 426.472 604.8ZM232.505 570.561C232.187 570.752 208.872 584.161 207.981 585.53C207.089 586.9 207.121 587.919 208.331 588.015C217.886 588.62 221.549 589.416 221.931 589.862C222.536 591.996 223.205 600.659 224.479 602.379C224.615 602.591 224.809 602.759 225.038 602.864C225.267 602.968 225.522 603.004 225.771 602.967C226.02 602.93 226.253 602.821 226.442 602.655C226.631 602.488 226.768 602.271 226.836 602.029C228.173 596.996 232.378 581.326 233.206 578.746C234.034 576.166 235.435 569.51 232.505 570.561ZM232.059 573.555C231.741 575.657 230.212 581.74 225.689 597.283C225.315 594.04 224.633 590.841 223.651 587.728C219.839 586.588 215.904 585.914 211.93 585.721C218.491 581.645 225.371 577.727 231.964 573.555H232.059ZM248.972 583.715C249.233 583.69 249.479 583.576 249.667 583.392C249.855 583.208 249.974 582.965 250.003 582.703C250.033 582.442 249.972 582.178 249.831 581.957C249.689 581.735 249.476 581.568 249.226 581.485C248.048 581.141 246.822 580.991 245.595 581.039V576.421C245.595 576.202 245.508 575.991 245.353 575.836C245.198 575.68 244.987 575.593 244.767 575.593C244.548 575.593 244.337 575.68 244.182 575.836C244.026 575.991 243.939 576.202 243.939 576.421C243.939 578.077 243.653 579.606 243.525 581.167C242.028 581.167 240.531 581.453 238.971 581.676C237.41 581.899 238.079 583.683 239.225 583.587C240.573 583.508 241.923 583.508 243.27 583.587C243.27 584.989 242.984 586.486 242.92 587.919C242.97 588.25 243.138 588.553 243.392 588.771C243.646 588.99 243.97 589.11 244.306 589.11C244.641 589.11 244.965 588.99 245.219 588.771C245.473 588.553 245.641 588.25 245.691 587.919V583.683C246.783 583.764 247.878 583.775 248.972 583.715ZM325.698 566.293C325.425 565.491 324.919 564.789 324.243 564.278C323.567 563.767 322.754 563.47 321.908 563.426C318.978 563.426 316.239 567.025 313.914 570.37H313.691C311.429 568.777 310.729 568.777 308.627 571.007C305.824 574.032 307.002 574.574 310.633 577.377C308.181 580.785 302.002 589.575 301.078 591.168C300.154 592.76 297.447 597.251 300.441 599.735C301.056 600.175 301.799 600.398 302.555 600.37C303.31 600.341 304.034 600.062 304.613 599.576C309.24 593.967 313.495 588.062 317.353 581.899C320.538 583.81 320.793 584.193 323.278 582.154C323.638 581.919 323.94 581.604 324.161 581.234C324.382 580.865 324.515 580.449 324.552 580.02C324.552 578.46 322.672 577.377 321.367 576.326C322.481 574.701 323.469 573.141 324.36 571.516C324.952 570.796 325.378 569.956 325.609 569.053C325.84 568.151 325.871 567.208 325.698 566.293ZM315.634 571.548C316.688 570.122 317.815 568.751 319.01 567.439C320.57 565.751 321.717 565.337 322.768 566.07C324.552 567.248 323.564 568.299 319.901 574.956L315.634 571.548ZM302.097 598.111C300.282 597.697 301.46 594.926 302.32 593.27C303.18 591.614 309.646 582.25 312.13 578.46C313.117 579.16 314.774 580.243 315.57 580.721C313.404 584.416 307.257 593.461 306.015 594.862C304.773 596.264 303.626 598.461 302.097 598.111ZM311.175 571.102L311.684 571.293C312.194 571.484 322.577 579.957 322.577 580.148C322.114 580.835 321.505 581.411 320.793 581.836C319.583 580.88 312.066 575.784 309.264 573.587C309.847 572.719 310.486 571.889 311.175 571.102ZM381.436 586.995C381.436 586.995 395.896 602.506 397.17 602.92C399.304 603.494 410.833 590.18 412.362 588.397C413.859 589.671 414.623 589.894 416.311 588.206C417.356 587.114 418.226 585.868 418.891 584.511C419.003 584.301 419.044 584.062 419.01 583.827C418.975 583.592 418.867 583.374 418.7 583.205C402.489 566.771 399.59 563.713 398.921 563.458C396.819 562.566 395.736 565.146 394.494 566.07C392.774 567.726 391.851 568.236 394.685 571.421C381.754 585.435 380.735 585.339 381.436 586.995ZM395.067 568.299C395.916 567.32 396.866 566.434 397.902 565.656C397.902 565.656 407.457 575.211 416.503 584.129C415.924 585.207 415.218 586.213 414.4 587.123C414.05 586.772 395.577 568.841 394.94 568.299H395.067ZM410.992 586.932C397.106 601.646 398.507 601.073 397.042 599.672C396.182 598.939 385.512 587.951 383.888 586.072C385.035 584.798 395.609 573.332 396.31 572.695C396.15 572.822 408.699 584.957 410.865 586.932H410.992Z" fill="black"/>
<path d="M394.176 580.212C390.991 583.588 388.506 584.575 388.857 586.391C390.412 588.695 392.206 590.831 394.208 592.761C394.33 592.86 394.482 592.916 394.639 592.918C394.797 592.921 394.951 592.87 395.076 592.774C395.201 592.678 395.29 592.543 395.329 592.39C395.368 592.238 395.355 592.076 395.29 591.932C395.29 591.932 392.774 587.633 391.691 586.199C391.946 585.881 394.653 582.25 395.386 581.422C395.546 581.261 395.637 581.044 395.637 580.817C395.637 580.59 395.546 580.372 395.386 580.212C395.225 580.051 395.008 579.961 394.781 579.961C394.554 579.961 394.336 580.051 394.176 580.212Z" fill="black"/>
<path d="M441.186 619.292L363.09 618.782C363.09 613.336 361.338 568.109 361.211 564.255C361.211 563.076 359.332 563.076 359.396 564.255C359.396 567.44 360.542 615.788 360.701 618.75H275.694C275.694 613.59 274.866 573.109 274.802 570.338C274.802 570.11 274.711 569.891 274.55 569.73C274.389 569.569 274.17 569.478 273.942 569.478C273.714 569.478 273.495 569.569 273.334 569.73C273.173 569.891 273.082 570.11 273.082 570.338V618.75C266.457 618.75 196.642 618.75 187.087 619.451C186.883 619.49 186.7 619.599 186.567 619.758C186.435 619.918 186.363 620.119 186.363 620.327C186.363 620.534 186.435 620.735 186.567 620.895C186.7 621.055 186.883 621.163 187.087 621.202C195.591 621.585 433.542 622.031 441.346 620.215C441.449 620.176 441.535 620.101 441.59 620.005C441.645 619.909 441.664 619.797 441.645 619.688C441.626 619.579 441.57 619.48 441.487 619.408C441.403 619.335 441.297 619.294 441.186 619.292ZM212.121 44.5901C212.854 45.8641 220.307 46.2781 220.975 46.0233C221.415 45.8691 221.794 45.5791 222.058 45.1952C224.585 47.3025 227.233 49.2593 229.989 51.0556C230.382 51.3734 230.837 51.6055 231.326 51.7371C231.814 51.8687 232.324 51.897 232.824 51.82C234.161 51.4378 259.291 36.4683 259.673 36.2135C261.329 35.1943 261.361 34.1751 261.138 33.5063C260.661 32.2004 234.989 20.1611 230.881 15.6703C230.762 15.5841 230.627 15.5223 230.484 15.4885C230.341 15.4546 230.193 15.4494 230.047 15.4731C229.902 15.4967 229.763 15.5489 229.639 15.6264C229.514 15.704 229.406 15.8055 229.32 15.9251C226.135 19.5878 223.3 23.3461 220.402 27.0726C217.484 26.9827 214.567 27.3043 211.739 28.0281C211.427 33.5501 211.555 39.0883 212.121 44.5901ZM234.002 35.0351C233.677 35.9246 233.06 36.6771 232.25 37.169C230.658 37.7105 229.065 36.2135 228.524 35.5447C226.772 33.5063 230.753 29.1747 233.397 32.5826C233.727 32.9275 233.958 33.3554 234.064 33.8209C234.171 34.2863 234.149 34.772 234.002 35.2262V35.0351ZM231.709 29.1428C230.756 28.9754 229.775 29.076 228.875 29.4335C227.976 29.7911 227.194 30.3914 226.616 31.1677C226.038 31.9439 225.687 32.8655 225.602 33.8295C225.517 34.7936 225.702 35.7623 226.135 36.6276C226.785 37.6973 227.736 38.5518 228.869 39.0842C230.002 39.6167 231.267 39.8036 232.505 39.6215C233.36 39.3095 234.12 38.782 234.712 38.0901C235.303 37.3982 235.706 36.5653 235.881 35.6721C239.385 35.6721 251.424 35.6721 256.233 35.4491L232.505 49.272C231.167 48.6987 223.332 42.902 222.377 42.1376C222.377 40.3859 222.377 29.9072 222.154 28.2192C224.829 25.0342 227.568 21.6262 230.18 18.2183C234.066 21.4033 251.997 30.9583 257.253 33.7292H235.977C235.838 32.6329 235.347 31.6114 234.577 30.8186C233.807 30.0258 232.801 29.5048 231.709 29.3339V29.1428ZM213.873 29.7161L219.765 29.4932C219.765 30.4805 220.147 42.2332 219.988 43.8894C217.977 44.0219 215.958 43.9258 213.968 43.6027C214.16 41.4051 214 32.3915 213.873 29.9072V29.7161ZM114.151 197.152C114.485 197.344 114.864 197.446 115.249 197.446C115.635 197.446 116.014 197.344 116.348 197.152C118.864 195.909 123.865 191.546 138.452 181.895C138.88 181.663 139.249 181.335 139.531 180.938C139.812 180.54 139.999 180.083 140.076 179.602C140.076 179.602 140.618 166.002 139.854 165.556C137.401 164.028 130.299 159.186 128.26 159.505C128.005 159.505 101.124 176.258 101.06 177.054C100.794 180.53 100.741 184.019 100.901 187.501C105.102 191.003 109.528 194.227 114.151 197.152ZM102.844 179.252C105.296 180.908 112.144 185.622 114.023 186.577V193.839C102.111 185.877 102.876 187.214 102.971 184.857C103.003 183.552 102.908 180.494 102.844 179.252ZM115.329 183.934C115.126 184.084 114.881 184.165 114.628 184.165C114.376 184.165 114.13 184.084 113.928 183.934C113.418 183.615 106.284 178.519 104.373 177.15C129.407 161.225 128.515 161.034 129.853 161.511C130.49 161.766 133.484 163.677 137.528 166.353C132.751 170.429 115.807 183.615 115.329 183.934ZM137.624 179.698C136.955 180.335 119.724 191.769 115.902 194.253V186.291C118.164 184.571 133.101 172.85 137.751 168.869C137.879 179.379 138.07 179.379 137.783 179.698H137.624ZM467.176 199.094C473.124 198.956 478.911 197.133 483.865 193.839C486.337 192.282 488.198 189.923 489.137 187.157C490.077 184.391 490.037 181.387 489.025 178.647C491.127 177.054 497.848 171.353 499.153 170.111C501.861 170.27 505.014 165.461 506.702 162.849C507.402 161.766 508.326 160.651 507.848 159.409C503.549 154.859 498.998 150.552 494.217 146.51C493.897 146.172 493.482 145.939 493.027 145.842C492.572 145.746 492.098 145.79 491.669 145.969C488.497 149.044 485.638 152.426 483.133 156.065C483.023 156.537 483.079 157.032 483.292 157.466C483.292 157.689 478.865 170.525 478.323 172.086C475.94 172.326 473.727 173.431 472.101 175.191C470.476 176.951 469.551 179.245 469.501 181.641C469.119 190.941 476.476 193.935 466.889 197.375C466.756 197.489 466.655 197.635 466.595 197.8C466.535 197.965 466.519 198.142 466.548 198.315C466.577 198.488 466.65 198.651 466.76 198.787C466.87 198.924 467.013 199.03 467.176 199.094ZM485.585 156.638C487.655 153.599 490.094 150.828 492.847 148.389C494.567 149.759 504.504 158.932 505.587 160.429C504.791 161.798 500.332 167.595 499.217 167.722C499.122 167.627 485.999 157.021 485.585 156.638ZM487.878 176.576C486.255 174.197 483.761 172.55 480.935 171.99C481.572 169.856 483.897 162.053 484.693 158.9C487.114 160.97 493.102 166.002 496.765 168.901C495.331 170.334 489.917 174.952 487.878 176.576ZM472.272 196.578C474.756 194.317 474.151 191.355 473.004 188.52C470.966 182.15 471.571 178.042 474.979 175.78C475.859 175.222 476.841 174.845 477.868 174.671C478.895 174.498 479.946 174.53 480.96 174.767C481.975 175.005 482.931 175.442 483.775 176.053C484.618 176.665 485.331 177.438 485.872 178.328C490.904 186.259 481.477 194.763 472.272 196.578ZM268.05 35.0351C269.356 35.0351 277 34.0477 283.975 33.3152C284.22 33.3152 284.455 33.2179 284.628 33.0447C284.801 32.8714 284.898 32.6365 284.898 32.3915C284.898 32.1466 284.801 31.9116 284.628 31.7384C284.455 31.5652 284.22 31.4679 283.975 31.4679C281.363 31.7227 269.101 32.4552 267.763 32.7419C267.505 32.8281 267.284 33.0011 267.139 33.2316C266.994 33.462 266.933 33.7357 266.967 34.006C267 34.2762 267.127 34.5265 267.324 34.7141C267.522 34.9017 267.778 35.0152 268.05 35.0351ZM293.02 32.9967C293.88 32.9967 310.792 31.5953 314.519 31.7864C315.761 31.7864 315.857 29.9709 314.519 29.8754C307.24 29.5204 299.943 29.7547 292.702 30.5761C292.426 30.6663 292.191 30.8498 292.037 31.0949C291.883 31.3401 291.819 31.6313 291.857 31.9185C291.895 32.2056 292.032 32.4705 292.244 32.6674C292.457 32.8642 292.731 32.9807 293.02 32.9967ZM324.106 31.1812L337.833 30.799C338.061 30.7577 338.266 30.6378 338.415 30.4603C338.563 30.2827 338.644 30.0588 338.644 29.8276C338.644 29.5964 338.563 29.3725 338.415 29.195C338.266 29.0174 338.061 28.8975 337.833 28.8562L324.169 28.474C323.845 28.5156 323.545 28.6722 323.326 28.9156C323.107 29.1589 322.982 29.4728 322.974 29.8002C322.966 30.1277 323.076 30.4471 323.284 30.7005C323.492 30.9538 323.783 31.1244 324.106 31.1812ZM348.758 31.6271C354.618 31.6271 375.766 32.6145 380.926 33.5063C382.2 33.7611 382.646 31.7864 381.372 31.5634C370.567 29.9204 359.655 29.0899 348.726 29.0791C348.388 29.0834 348.066 29.2216 347.83 29.4635C347.594 29.7054 347.464 30.0312 347.468 30.3691C347.472 30.7069 347.61 31.0293 347.852 31.2652C348.094 31.5012 348.42 31.6314 348.758 31.6271ZM391.214 37.1372C399.646 39.6311 407.437 43.9232 414.05 49.7179C415.069 50.6416 416.503 49.1446 415.515 48.221C408.835 41.8212 400.704 37.1332 391.819 34.5573C391.497 34.5276 391.176 34.6152 390.914 34.8038C390.652 34.9925 390.467 35.2696 390.393 35.5839C390.32 35.8982 390.362 36.2286 390.513 36.514C390.664 36.7995 390.913 37.0208 391.214 37.1372ZM419.465 79.6251C419.201 79.6895 418.969 79.8482 418.814 80.0713C418.659 80.2944 418.59 80.5665 418.622 80.8364C418.653 81.1064 418.782 81.3556 418.984 81.5372C419.186 81.7189 419.448 81.8204 419.719 81.8227C423.924 81.8227 428.86 76.9178 429.274 70.1338C429.689 63.3497 425.038 57.9034 420.579 53.3488C420.389 53.1545 420.13 53.0437 419.858 53.0407C419.586 53.0378 419.325 53.1429 419.13 53.3329C418.936 53.523 418.825 53.7824 418.822 54.0542C418.819 54.326 418.924 54.5878 419.114 54.7821C424.147 60.0055 426.599 64.783 426.631 69.4331C426.716 71.6819 426.061 73.8964 424.766 75.7373C423.472 77.5782 421.609 78.9439 419.465 79.6251ZM384.716 89.9763C387.901 89.9763 408.89 85.167 412.362 84.3389C412.605 84.2587 412.809 84.09 412.934 83.8662C413.058 83.6425 413.094 83.3801 413.033 83.1313C412.973 82.8825 412.822 82.6655 412.609 82.5233C412.396 82.3812 412.137 82.3244 411.884 82.3642C407.139 83.4471 390.386 86.3773 384.493 87.3965C384.184 87.4646 383.91 87.643 383.722 87.8983C383.534 88.1536 383.446 88.4685 383.473 88.7842C383.501 89.0999 383.642 89.3949 383.87 89.6143C384.099 89.8336 384.4 89.9623 384.716 89.9763ZM376.085 87.8742C369.301 88.6068 362.198 89.2438 355.351 90.263C355.063 90.3492 354.813 90.532 354.645 90.7806C354.476 91.0292 354.398 91.3285 354.424 91.6278C354.45 91.9271 354.579 92.2083 354.788 92.4238C354.998 92.6394 355.275 92.7761 355.574 92.811C357.516 92.811 373.059 90.7726 376.181 90.3904C377.805 90.1674 377.709 87.6513 376.085 87.8742ZM328.055 96.0278C329.902 96.0278 342.642 93.9576 345.605 93.5435C345.853 93.4809 346.07 93.3298 346.215 93.1185C346.36 92.9071 346.422 92.6502 346.391 92.3959C346.36 92.1417 346.237 91.9076 346.045 91.7377C345.853 91.5678 345.606 91.4738 345.35 91.4733C341.464 91.9192 331.622 92.7791 327.8 93.448C327.489 93.5176 327.214 93.6987 327.027 93.9571C326.84 94.2155 326.755 94.5333 326.786 94.8507C326.817 95.168 326.964 95.4629 327.197 95.6798C327.431 95.8966 327.736 96.0204 328.055 96.0278ZM274.897 100.614C281.713 100.614 288.689 99.4039 295.441 98.7669C296.842 98.7669 296.842 96.4419 295.441 96.5693C288.657 97.1107 281.554 97.3974 274.706 98.3529C273.337 98.5121 273.496 100.614 274.897 100.614ZM241.328 103.544C241.048 103.611 240.802 103.777 240.636 104.012C240.471 104.247 240.396 104.534 240.428 104.82C240.459 105.105 240.594 105.37 240.806 105.563C241.019 105.756 241.295 105.865 241.582 105.869C243.748 105.869 261.234 103.29 263.877 102.939C264.156 102.874 264.4 102.707 264.561 102.47C264.723 102.234 264.79 101.946 264.75 101.663C264.71 101.38 264.566 101.122 264.346 100.94C264.125 100.757 263.845 100.664 263.559 100.678C259.387 101.188 244.863 102.812 241.328 103.544ZM192.82 112.654C205.18 110.06 217.674 108.146 230.244 106.921C231.9 106.921 231.836 104.213 230.244 104.373C217.517 105.131 204.89 107.093 192.533 110.233C192.26 110.321 192.025 110.502 191.869 110.744C191.714 110.987 191.648 111.275 191.681 111.561C191.715 111.847 191.847 112.112 192.055 112.311C192.263 112.511 192.533 112.632 192.82 112.654ZM150.205 129.088C158.698 123.999 167.975 120.351 177.659 118.291C179.348 117.941 178.679 115.393 177.022 115.743C167.049 117.723 157.492 121.408 148.772 126.636C148.498 126.849 148.312 127.155 148.247 127.495C148.181 127.836 148.242 128.189 148.417 128.488C148.592 128.787 148.869 129.013 149.198 129.124C149.527 129.234 149.885 129.221 150.205 129.088ZM123.292 154.696C126.807 145.227 133.582 137.323 142.402 132.401C143.58 131.764 142.593 130.012 141.382 130.617C131.78 135.39 124.404 143.702 120.807 153.804C120.202 155.587 122.686 156.288 123.292 154.696ZM130.235 192.788C129.279 191.705 127.751 193.202 128.642 194.253C130.872 196.833 142.624 205.878 145.013 205.878C145.264 205.876 145.507 205.792 145.705 205.639C145.903 205.486 146.046 205.271 146.111 205.029C146.176 204.787 146.16 204.531 146.065 204.299C145.97 204.067 145.802 203.872 145.587 203.745C140.184 200.51 135.05 196.846 130.235 192.788ZM174.634 213.204C167.444 212.493 160.408 210.678 153.772 207.821C152.307 207.184 151.097 209.35 152.594 210.051C159.489 213.317 166.929 215.283 174.538 215.848C176.29 215.943 176.29 213.395 174.634 213.204ZM181.545 217.567C185.24 218.109 200.305 220.561 204.127 220.752C204.443 220.762 204.752 220.653 204.993 220.447C205.233 220.241 205.389 219.953 205.429 219.639C205.468 219.325 205.39 219.007 205.208 218.748C205.026 218.488 204.754 218.306 204.445 218.236C200.783 217.472 185.845 215.688 182.15 215.051C180.653 215.019 180.048 217.313 181.545 217.567ZM230.626 221.453C224.447 222.002 218.22 221.485 212.217 219.924C211.967 219.896 211.715 219.958 211.507 220.099C211.299 220.241 211.149 220.452 211.083 220.695C211.018 220.938 211.042 221.196 211.15 221.423C211.259 221.649 211.445 221.83 211.675 221.931C217.874 223.737 224.35 224.396 230.785 223.874C232.219 223.714 232.187 221.358 230.626 221.453ZM442.301 205.815C448.939 205.088 455.483 203.668 461.825 201.579C463.163 201.133 462.59 199.031 461.22 199.445C455.033 201.243 448.687 202.438 442.269 203.012C440.422 203.203 440.454 205.974 442.301 205.815ZM412.744 208.235C412.488 208.317 412.267 208.485 412.119 208.71C411.97 208.935 411.904 209.204 411.93 209.472C411.956 209.74 412.073 209.991 412.262 210.184C412.451 210.376 412.7 210.498 412.967 210.529C415.292 210.529 431.185 207.726 433.893 207.344C435.453 207.057 434.848 204.796 433.351 205.019C425.134 206.197 419.019 207.025 412.744 208.235ZM404.495 209.223C396.565 210.624 388.57 211.452 380.99 212.185C379.334 212.376 379.397 214.924 380.99 214.796C389.013 214.15 396.997 213.087 404.909 211.611C405.066 211.584 405.216 211.526 405.35 211.441C405.485 211.356 405.601 211.245 405.693 211.115C405.785 210.985 405.85 210.838 405.885 210.683C405.92 210.528 405.924 210.367 405.897 210.21C405.869 210.053 405.812 209.903 405.726 209.769C405.641 209.634 405.53 209.518 405.4 209.426C405.27 209.334 405.123 209.269 404.968 209.234C404.813 209.2 404.652 209.196 404.495 209.223ZM171.799 322.736C173.2 322.736 173.264 320.761 171.799 320.57C165.337 319.608 158.769 319.608 152.307 320.57C152.001 320.638 151.732 320.818 151.553 321.076C151.375 321.333 151.3 321.649 151.344 321.959C151.389 322.269 151.549 322.551 151.792 322.749C152.036 322.946 152.345 323.044 152.657 323.023C159.017 322.359 165.423 322.263 171.799 322.736ZM454.595 321.048C454.331 321.131 454.103 321.302 453.95 321.533C453.796 321.764 453.727 322.041 453.753 322.317C453.779 322.593 453.899 322.851 454.093 323.049C454.287 323.247 454.543 323.373 454.818 323.405C455.137 323.405 471.922 322.927 475.967 323.405C477.049 323.564 477.4 321.908 476.317 321.749C469.109 320.907 461.843 320.673 454.595 321.048ZM445.9 323.564C446.154 323.564 446.397 323.464 446.576 323.284C446.755 323.105 446.856 322.862 446.856 322.609C446.856 322.355 446.755 322.112 446.576 321.933C446.397 321.754 446.154 321.653 445.9 321.653C441.206 321.349 436.492 321.681 431.886 322.641C430.517 322.927 430.899 324.934 432.205 324.934C436.697 323.921 441.296 323.461 445.9 323.564ZM518.391 363.09C518.136 364.364 519.983 365.16 520.525 363.918C523.264 357.739 524.633 348.28 521.194 341.623C520.525 340.349 518.614 341.432 519.251 342.706C523.105 350.35 519.41 358.153 518.391 363.09ZM133.77 458.64C129.289 462.363 125.541 466.889 122.718 471.985C122.655 472.09 122.614 472.206 122.596 472.326C122.578 472.447 122.584 472.57 122.614 472.688C122.673 472.927 122.826 473.133 123.037 473.259C123.248 473.386 123.501 473.424 123.74 473.364C123.979 473.304 124.184 473.152 124.311 472.941C127.225 468.138 130.954 463.881 135.331 460.36C136.605 459.436 135.044 457.78 133.77 458.64ZM155.046 439.944C150.682 443.209 146.533 446.752 142.624 450.55C142.434 450.745 142.329 451.006 142.332 451.278C142.335 451.55 142.446 451.809 142.64 451.999C142.835 452.189 143.096 452.294 143.368 452.292C143.64 452.289 143.9 452.178 144.09 451.983C145.873 450.104 155.46 442.62 156.416 441.823C157.371 441.027 156.224 439.53 155.046 439.944ZM164.601 434.147C165.27 434.147 163.295 434.784 175.175 426.949C175.423 426.778 175.598 426.52 175.666 426.227C175.734 425.933 175.69 425.625 175.542 425.362C175.395 425.099 175.155 424.901 174.869 424.806C174.583 424.71 174.272 424.725 173.997 424.847C170.487 427.239 167.135 429.857 163.964 432.682C163.857 432.809 163.788 432.964 163.764 433.128C163.74 433.292 163.762 433.46 163.828 433.612C163.894 433.765 164.002 433.895 164.138 433.99C164.275 434.085 164.435 434.139 164.601 434.147Z" fill="black"/>
<path d="M180.876 421.535C181.704 421.885 181.163 421.535 191.196 415.165C190.55 423.163 190.667 431.204 191.546 439.18C186.577 436.479 181.808 433.424 177.277 430.039C176.417 429.37 175.271 430.58 176.162 431.313C181.112 435.554 186.443 439.328 192.087 442.588C196.262 474.294 212.438 503.192 237.283 523.327C225.88 526.003 218.682 527.5 215.879 527.786C214.669 527.786 214.669 529.761 215.879 529.761C218.65 529.761 236.295 526.321 240.022 525.557C285.758 561.961 345.891 558.394 389.717 524.856C398.49 527.176 407.406 528.921 416.407 530.08C416.686 530.059 416.95 529.941 417.152 529.748C417.355 529.555 417.484 529.297 417.518 529.019C417.552 528.741 417.488 528.46 417.338 528.223C417.187 527.987 416.96 527.81 416.694 527.723C412.744 527.054 401.66 524.952 392.105 522.977C416.068 504 432.037 476.722 436.855 446.537C438.065 445.773 439.243 444.945 440.39 444.085C441.537 443.225 440.39 441.218 439.148 442.014L437.332 443.129C441.218 409.304 429.306 375.607 408.253 350.286C414.241 343.693 418.414 335.89 415.961 327.227C418.979 326.307 422.054 325.584 425.166 325.061C426.567 324.87 426.058 322.8 424.72 322.991C421.494 323.403 418.301 324.042 415.165 324.902C412.838 319.134 408.843 314.192 403.691 310.708C398.539 307.224 392.464 305.357 386.245 305.346C391.333 299.997 395.066 293.508 397.133 286.421C399.2 279.334 399.54 271.855 398.125 264.61C392.233 237.537 371.18 211.803 344.681 196.992C345.33 193.408 345.133 189.722 344.107 186.227C343.407 183.042 341.305 181.959 338.852 180.367C337.578 179.539 336.368 178.774 335.03 178.01C338.545 172.541 340.382 166.164 340.317 159.664C347.484 158.963 347.738 148.517 339.871 146.924C347.866 109.405 278.465 103.035 282.541 148.134C281.128 148.538 279.861 149.342 278.895 150.45C277.928 151.558 277.303 152.922 277.095 154.377C276.906 155.375 276.967 156.404 277.27 157.372C277.574 158.341 278.112 159.221 278.836 159.932C279.56 160.644 280.448 161.166 281.423 161.453C282.397 161.739 283.426 161.781 284.421 161.575C284.128 165.699 284.988 169.824 286.905 173.487C285.311 173.853 283.828 174.593 282.576 175.645C281.325 176.697 280.341 178.032 279.707 179.539C278.295 183.558 278.019 187.889 278.911 192.056C253.59 203.607 233.345 223.988 221.963 249.386C212.949 269.929 217.344 284.962 233.269 300.632C226.138 298.332 218.43 298.569 211.452 301.301C207.076 303.183 203.163 305.996 199.983 309.544C196.804 313.091 194.436 317.289 193.043 321.844C189.979 321.355 186.868 321.226 183.775 321.462C183.563 321.502 183.372 321.614 183.234 321.78C183.097 321.946 183.022 322.155 183.022 322.37C183.022 322.585 183.097 322.794 183.234 322.96C183.372 323.125 183.563 323.238 183.775 323.278C186.709 323.153 189.644 323.497 192.47 324.297C190.272 337.706 201.642 349.044 212.694 357.007C200.833 373.122 193.528 392.132 191.546 412.044C187.809 414.321 184.204 416.81 180.749 419.496C180.567 419.604 180.418 419.76 180.32 419.947C180.221 420.133 180.175 420.344 180.189 420.555C180.202 420.766 180.273 420.969 180.394 421.142C180.516 421.315 180.682 421.451 180.876 421.535ZM321.685 186.641L323.023 186.227C323.755 186.991 325.73 188.711 326.94 189.731C317.481 194.699 305.76 194.285 293.53 188.329C294.899 187.087 297.129 184.826 297.957 183.87C300.147 184.709 302.379 185.432 304.645 186.036C305.575 187.414 306.818 188.553 308.272 189.36C309.726 190.166 311.35 190.617 313.011 190.676C314.673 190.735 316.325 190.401 317.832 189.699C319.34 188.998 320.66 187.95 321.685 186.641ZM296.205 182.978C295.122 184.189 292.702 186.769 291.905 187.437C291.014 186.949 290.122 186.439 289.23 185.909C289.057 185.803 288.849 185.771 288.652 185.818C288.455 185.866 288.284 185.99 288.179 186.163C288.073 186.337 288.041 186.545 288.089 186.742C288.136 186.939 288.261 187.109 288.434 187.214C296.173 192.183 303.722 195.941 312.863 195.941C316.566 196.117 320.261 195.462 323.678 194.023C327.095 192.585 330.147 190.4 332.61 187.628C332.741 187.493 332.812 187.312 332.809 187.124C332.806 186.935 332.729 186.756 332.594 186.625C332.459 186.494 332.277 186.422 332.089 186.425C331.901 186.428 331.721 186.506 331.59 186.641C330.728 187.353 329.824 188.012 328.883 188.616C328.023 187.883 326.049 186.291 325.093 185.431C328.334 184.208 331.276 182.307 333.724 179.857C336.909 181.208 339.766 183.228 342.101 185.781C343.271 189.251 343.459 192.977 342.642 196.546C339.712 205.592 316.016 214.542 291.682 201.834C283.115 197.534 279.516 193.998 281.044 183.297C281.158 181.405 281.885 179.601 283.115 178.159C284.344 176.717 286.01 175.714 287.86 175.303C289.959 178.517 292.827 181.155 296.205 182.978ZM322.131 210.21C327.323 209.573 339.648 207.216 344.012 199.158C369.333 213.172 395.736 244.513 396.341 273.082C396.56 279.361 395.305 285.605 392.678 291.312C390.051 297.02 386.124 302.033 381.213 305.951C376.708 306.78 372.391 308.42 368.473 310.792C371.276 267.508 371.371 270.12 371.053 269.801C370.734 269.483 365.893 269.451 357.994 269.26C358.981 268.018 361.625 264.514 362.23 263.814C362.378 263.657 362.458 263.449 362.452 263.234C362.446 263.019 362.355 262.815 362.198 262.667C362.042 262.519 361.833 262.44 361.618 262.446C361.403 262.451 361.2 262.543 361.052 262.699C359.04 264.931 356.914 267.058 354.682 269.069H354.013C354.825 259.409 355.038 249.708 354.65 240.022C354.65 239.257 353.312 239.257 353.376 240.022C353.694 244.576 351.56 264.992 351.306 268.91C327.577 268.432 288.02 268.018 264.132 267.795C261.205 257.891 259.966 247.566 260.469 237.251C260.469 236.168 258.941 236.168 258.845 237.251C257.815 247.511 258.668 257.873 261.361 267.827H260.692C257.501 264.636 254.471 261.288 251.615 257.794C251.499 257.635 251.328 257.524 251.135 257.483C250.942 257.443 250.741 257.475 250.571 257.574C250.4 257.673 250.273 257.832 250.213 258.02C250.153 258.207 250.164 258.411 250.246 258.59C250.596 259.259 254.418 264.96 256.934 267.954H244.576C243.653 267.954 243.939 267.954 243.876 268.687C243.557 272.286 244.704 292.16 245.595 306.302C243.675 305.104 241.674 304.04 239.608 303.117C223.205 287 214.478 274.452 223.396 252.921C234.043 226.99 254.101 206.044 279.548 194.285C283.115 201.897 301.237 212.694 322.131 210.21ZM245.914 270.215C249.545 270.215 361.275 271.203 369.078 271.904C367.581 284.452 364.81 321.526 363.854 333.979H356.879C352.93 337.387 323.628 361.721 321.526 363.504C320.793 364.077 322.131 364.555 325.284 367.39C327.268 368.846 328.93 370.694 330.169 372.82C331.407 374.946 332.194 377.304 332.482 379.748C332.49 379.86 332.541 379.966 332.624 380.043C332.706 380.119 332.815 380.162 332.928 380.162C344.267 380.639 353.854 390.736 345.987 396.979C338.757 402.712 327.577 396.979 322.035 391.691C327.036 385.162 329.966 379.461 324.36 373.569C323.692 372.868 316.494 367.008 307.353 359.555C272.732 331.304 275.503 332.896 275.057 332.896C273.273 332.896 254.354 331.59 250.946 331.399C248.43 311.015 246.583 281.236 245.914 270.215ZM279.229 395.832C274.547 396.182 266.68 396.787 263.304 392.042C261.106 388.857 264.387 385.13 267.922 384.111C275.662 386.914 287.829 390.831 291.778 392.074C287.848 394.054 283.6 395.327 279.229 395.832ZM262.667 395.195C265.852 398.38 271.267 398.762 275.598 398.698C282.666 398.663 289.598 396.763 295.695 393.188C302.671 395.227 309.582 396.979 316.78 398.507C316.866 398.537 316.96 398.537 317.046 398.509C317.132 398.48 317.207 398.423 317.258 398.348C318.468 396.851 319.647 395.163 320.73 393.73C328.055 400.546 340.285 405.037 347.802 399.24C353.344 394.94 352.484 387.583 346.942 383.028C373.314 375.289 394.303 364.173 406.088 352.484C417.086 365.095 425.226 379.937 429.949 395.99C434.671 412.043 435.864 428.928 433.447 445.486C426.719 449.888 419.754 453.918 412.585 457.557C412.412 457.646 412.274 457.791 412.194 457.969C412.114 458.146 412.097 458.346 412.145 458.534C412.193 458.723 412.304 458.89 412.459 459.007C412.614 459.125 412.804 459.186 412.999 459.182C413.413 459.182 426.153 453.035 432.873 449.053C427.373 477.835 411.927 503.765 389.239 522.308C384.111 521.225 379.684 520.206 377.582 519.569C376.435 519.187 375.926 520.907 377.04 521.321C378.983 522.022 382.614 523.009 386.946 524.124C366.402 539.778 341.309 548.299 315.48 548.391C289.652 548.483 264.499 540.141 243.844 524.633C247.661 523.836 251.418 522.771 255.087 521.448C256.488 520.843 255.628 518.773 254.195 519.091L240.945 522.276C216.671 502.793 200.405 475.066 195.241 444.371L195.878 444.658C197.343 445.295 198.489 443.288 197.12 442.492L194.763 441.123C190.551 412.053 197.641 382.474 214.574 358.472C230.435 368.62 247.431 376.872 265.215 383.06C260.183 385.608 258.495 391.086 262.667 395.195ZM338.661 158.836C337.992 165.206 337.037 171.576 333.087 176.481C330.922 179.188 326.303 183.201 322.513 183.297C319.997 183.297 319.105 181.832 317.481 180.112C315.347 177.628 314.296 176.322 313.149 176.513C310.601 176.831 311.047 181.641 306.97 184.029C305.728 184.73 301.397 183.488 298.084 181.895C294.201 179.97 291.001 176.902 288.911 173.105C286.822 169.308 285.944 164.962 286.395 160.652C286.395 159.887 285.281 159.409 284.835 159.632C284.142 159.872 283.401 159.93 282.679 159.803C281.958 159.675 281.281 159.365 280.714 158.902C280.146 158.44 279.705 157.84 279.434 157.159C279.163 156.479 279.071 155.74 279.165 155.014C280.376 148.644 287.51 150.237 289.389 153.931C289.452 154.024 289.545 154.093 289.653 154.124C289.761 154.155 289.877 154.147 289.98 154.101C290.082 154.055 290.166 153.975 290.215 153.874C290.264 153.773 290.276 153.658 290.249 153.549C288.966 150.2 288.806 146.526 289.794 143.078C290.783 139.631 292.865 136.599 295.727 134.439C300.277 137.598 305.684 139.291 311.222 139.291C316.761 139.291 322.168 137.598 326.717 134.439C332.864 139.216 333.087 149.154 332.641 152.625C332.636 152.709 332.651 152.793 332.684 152.871C332.717 152.948 332.768 153.017 332.833 153.071C333.374 153.485 334.266 152.402 334.712 151.893C335.284 151.004 336.106 150.303 337.075 149.878C338.044 149.453 339.116 149.323 340.158 149.504C341.199 149.656 342.148 150.185 342.826 150.989C343.503 151.794 343.862 152.819 343.835 153.871C343.807 154.922 343.395 155.928 342.677 156.696C341.958 157.464 340.983 157.942 339.935 158.04C339.712 157.849 338.725 158.167 338.661 158.836Z" fill="black"/>
<path d="M293.02 508.167C293.02 508.581 293.339 508.931 293.02 508.167C284.023 511.807 274.717 514.631 265.215 516.607C264.068 516.83 264.451 518.518 265.597 518.391C275.436 517.284 285.024 514.561 293.976 510.332C295.281 509.6 294.422 507.657 293.02 508.167ZM337.61 494.63C338.375 494.63 364.173 484.502 366.689 482.878C367.931 482.05 367.071 479.916 365.606 480.457C363.026 481.413 342.515 491.095 337.387 492.911C337.2 492.982 337.042 493.114 336.94 493.286C336.837 493.458 336.795 493.66 336.821 493.858C336.847 494.057 336.938 494.241 337.082 494.381C337.225 494.521 337.411 494.609 337.61 494.63ZM377.04 477.75C377.868 477.75 399.335 467.972 401.342 466.443C402.329 465.679 401.66 463.863 400.355 464.373C398.412 465.105 380.799 473.928 376.754 475.616C376.527 475.711 376.339 475.877 376.217 476.09C376.095 476.303 376.046 476.55 376.079 476.793C376.112 477.036 376.224 477.261 376.397 477.434C376.571 477.608 376.797 477.718 377.04 477.75ZM439.53 413.731C441.314 414.878 447.939 420.101 449.722 421.248C449.995 421.406 450.315 421.46 450.625 421.4C450.934 421.34 451.211 421.17 451.405 420.922C451.599 420.674 451.697 420.363 451.68 420.049C451.664 419.734 451.534 419.436 451.315 419.21C449.627 417.776 442.333 413.222 440.517 412.139C440.306 412.008 440.052 411.966 439.81 412.023C439.568 412.08 439.358 412.23 439.228 412.441C439.097 412.653 439.055 412.907 439.112 413.149C439.168 413.391 439.319 413.6 439.53 413.731ZM479.502 440.167C478.515 439.371 477.177 440.804 478.196 441.632C480.457 443.511 489.439 451.474 491.923 453.162C492.187 453.292 492.487 453.327 492.774 453.261C493.06 453.195 493.315 453.032 493.495 452.8C493.675 452.567 493.769 452.279 493.761 451.986C493.754 451.692 493.644 451.41 493.452 451.187C491.414 449.085 482.145 442.269 479.502 440.167ZM500.045 458.449C499.855 458.263 499.599 458.16 499.333 458.163C499.067 458.166 498.814 458.275 498.628 458.465C498.442 458.655 498.339 458.911 498.342 459.177C498.345 459.443 498.454 459.696 498.644 459.882C502.643 463.928 506.238 468.355 509.377 473.1C510.396 474.533 512.721 473.1 511.734 471.635C508.408 466.765 504.481 462.335 500.045 458.449ZM455.455 531.895C451.187 531.895 432.81 530.685 428.287 529.761C428.08 529.71 427.862 529.744 427.679 529.854C427.497 529.965 427.366 530.143 427.316 530.35C427.265 530.557 427.299 530.776 427.409 530.958C427.52 531.14 427.698 531.271 427.905 531.322C437.002 533.032 446.208 534.096 455.455 534.507C455.801 534.507 456.134 534.369 456.379 534.124C456.623 533.879 456.761 533.547 456.761 533.201C456.761 532.854 456.623 532.522 456.379 532.277C456.134 532.033 455.801 531.895 455.455 531.895ZM341.623 508.995C340.508 508.453 339.585 510.11 340.731 510.683C348.755 514.735 357.345 517.549 366.211 519.028C367.931 519.346 368.6 516.702 366.848 516.416C358.135 515.13 349.645 512.632 341.623 508.995ZM304.295 506.797C308.276 505.937 316.398 503.612 317.672 503.421C318.882 503.899 326.654 506.829 330.794 507.816C331.104 507.885 331.429 507.833 331.702 507.669C331.974 507.506 332.174 507.245 332.26 506.939C332.345 506.633 332.311 506.306 332.162 506.024C332.014 505.743 331.764 505.53 331.463 505.428C328.278 504.281 325.093 503.326 321.558 502.243C324.126 501.389 326.619 500.324 329.011 499.058C329.185 498.872 329.3 498.639 329.344 498.388C329.387 498.137 329.356 497.879 329.254 497.645C329.153 497.412 328.985 497.213 328.772 497.073C328.559 496.934 328.31 496.86 328.055 496.86C324.488 498.07 320.984 499.599 317.513 500.937C313.563 499.535 309.932 498.102 306.461 496.573C305.314 496.064 304.391 497.752 305.569 498.293C308.467 499.663 311.366 500.969 314.232 502.147C310.846 503.323 307.402 504.322 303.913 505.141C303.766 505.248 303.654 505.395 303.591 505.565C303.528 505.734 303.516 505.919 303.556 506.095C303.597 506.272 303.689 506.433 303.82 506.557C303.952 506.682 304.117 506.765 304.295 506.797ZM161.734 417.999C158.549 415.515 146.606 405.259 143.962 402.457C143.102 401.533 141.669 402.902 142.529 403.826C147.727 409.941 153.665 415.387 160.206 420.038C161.48 420.898 162.945 418.955 161.734 417.999ZM123.897 568.714C121.909 551.13 118.327 533.764 113.195 516.83C116.101 521.224 120.581 524.336 125.712 525.525C125.932 525.618 126.179 525.62 126.4 525.53C126.621 525.441 126.798 525.267 126.891 525.047C126.983 524.828 126.985 524.58 126.896 524.359C126.806 524.138 126.632 523.962 126.413 523.869C122.336 521.416 116.062 518.932 114.119 512.976C115.182 511.036 115.443 508.757 114.848 506.626C114.253 504.496 112.848 502.682 110.934 501.574C112.08 494.809 114.501 488.324 118.068 482.464C118.482 481.667 117.399 480.839 116.794 481.54C112.249 487.207 109.469 494.085 108.8 501.319C107.971 501.379 107.155 501.561 106.379 501.86C97.9407 480.049 85.9518 459.784 70.8982 441.887C71.4777 440.899 71.7029 439.743 71.5365 438.61C71.3701 437.476 70.8221 436.434 69.9831 435.654C69.144 434.875 68.0641 434.404 66.9218 434.322C65.7794 434.239 64.6429 434.548 63.7001 435.198C62.6243 435.93 61.8423 437.019 61.4925 438.273C61.1427 439.526 61.2478 440.863 61.7891 442.046C62.1499 442.677 62.6347 443.229 63.2144 443.667C63.794 444.106 64.4565 444.423 65.1619 444.598C65.8673 444.774 66.601 444.805 67.3186 444.689C68.0363 444.573 68.7231 444.314 69.3376 443.925C84.0969 461.621 95.9252 481.568 104.373 503.007C99.181 507.593 103.704 516.193 110.233 515.492C115.616 533.019 119.369 551.006 121.444 569.223C120.489 569.73 119.748 570.564 119.359 571.573C118.969 572.582 118.956 573.697 119.323 574.715C119.69 575.732 120.412 576.583 121.356 577.11C122.3 577.638 123.403 577.808 124.461 577.588C125.52 577.368 126.464 576.773 127.12 575.913C127.775 575.053 128.098 573.985 128.03 572.906C127.961 571.826 127.505 570.808 126.746 570.038C125.986 569.268 124.975 568.798 123.897 568.714ZM69.1783 439.53C69.2902 439.95 69.304 440.39 69.2188 440.816C69.1336 441.242 68.9516 441.642 68.6869 441.987C68.4222 442.331 68.0818 442.61 67.6921 442.802C67.3023 442.994 66.8737 443.094 66.4392 443.094C66.0048 443.094 65.5761 442.994 65.1864 442.802C64.7967 442.61 64.4563 442.331 64.1916 441.987C63.9268 441.642 63.7448 441.242 63.6596 440.816C63.5744 440.39 63.5883 439.95 63.7001 439.53C63.5883 439.11 63.5744 438.67 63.6596 438.244C63.7448 437.818 63.9268 437.417 64.1916 437.073C64.4563 436.728 64.7967 436.449 65.1864 436.257C65.5761 436.065 66.0048 435.966 66.4392 435.966C66.8737 435.966 67.3023 436.065 67.6921 436.257C68.0818 436.449 68.4222 436.728 68.6869 437.073C68.9516 437.417 69.1336 437.818 69.2188 438.244C69.304 438.67 69.2902 439.11 69.1783 439.53ZM126.508 573.013C126.508 576.198 121.253 576.198 121.253 573.013C121.253 569.828 126.381 570.115 126.381 573.3L126.508 573.013ZM112.558 510.587C110.838 515.906 104.436 512.18 104.532 507.848C104.532 504.026 109.851 501.478 111.857 505.141C112.371 505.965 112.69 506.895 112.79 507.861C112.889 508.827 112.766 509.803 112.431 510.715L112.558 510.587ZM575.784 382.487C575.768 381.567 575.497 380.669 575.001 379.894C574.505 379.119 573.803 378.497 572.974 378.098C572.145 377.698 571.222 377.536 570.306 377.631C569.391 377.725 568.52 378.072 567.79 378.633C549.867 368.139 534.453 353.855 522.627 336.782C523.491 335.789 524.085 334.591 524.353 333.303C524.621 332.015 524.553 330.679 524.156 329.424C523.851 328.451 523.3 327.573 522.554 326.877C521.809 326.18 520.896 325.69 519.904 325.452C518.912 325.214 517.875 325.238 516.896 325.522C515.916 325.805 515.026 326.338 514.314 327.068C498.986 306.333 488.031 282.7 482.114 257.603C482.711 256.926 483.077 256.075 483.157 255.176C483.237 254.276 483.028 253.374 482.559 252.602C482.208 251.805 481.606 251.144 480.845 250.719C480.084 250.294 479.205 250.128 478.341 250.247C477.478 250.366 476.676 250.762 476.058 251.377C475.44 251.991 475.039 252.791 474.915 253.653C474.713 254.378 474.711 255.145 474.909 255.871C475.106 256.597 475.497 257.256 476.039 257.778C476.581 258.301 477.254 258.667 477.987 258.838C478.72 259.009 479.486 258.978 480.203 258.749C486.071 284.136 497.204 308.007 512.881 328.819C512.546 329.361 512.299 329.952 512.148 330.571C508.103 328.628 488.006 322.258 485.904 322.832C485.012 323.086 485.426 324.169 485.904 324.297C494.698 326.727 503.335 329.694 511.766 333.183C511.944 334.158 512.342 335.08 512.929 335.878C513.517 336.677 514.278 337.331 515.156 337.791C516.034 338.252 517.005 338.506 517.996 338.536C518.987 338.565 519.971 338.368 520.875 337.96C535.399 358.599 550.273 372.518 566.325 380.512C565.981 381.285 565.835 382.131 565.901 382.974C565.966 383.818 566.24 384.632 566.698 385.343C567.156 386.054 567.784 386.64 568.525 387.047C569.266 387.455 570.097 387.672 570.943 387.678C571.618 387.711 572.292 387.596 572.918 387.341C573.544 387.087 574.107 386.699 574.567 386.205C575.028 385.711 575.376 385.122 575.586 384.48C575.796 383.838 575.864 383.158 575.784 382.487ZM568.714 384.079C568.44 383.675 568.277 383.207 568.24 382.721C568.203 382.234 568.293 381.747 568.502 381.306C568.711 380.865 569.032 380.487 569.432 380.208C569.832 379.929 570.298 379.759 570.784 379.716C571.547 379.74 572.272 380.059 572.806 380.605C573.34 381.151 573.643 381.882 573.65 382.646C573.651 383.226 573.463 383.79 573.115 384.255C572.767 384.719 572.278 385.057 571.721 385.219C571.164 385.38 570.569 385.357 570.027 385.151C569.485 384.946 569.024 384.569 568.714 384.079ZM519.92 336.113C518.935 336.43 517.873 336.408 516.903 336.05C515.933 335.692 515.111 335.019 514.569 334.138C514.271 333.43 514.148 332.66 514.211 331.895C514.274 331.129 514.52 330.39 514.93 329.739C515.339 329.089 515.899 328.547 516.563 328.16C517.226 327.772 517.974 327.551 518.741 327.514C522.818 327.514 523.519 334.616 519.92 336.113ZM481.094 254.8C481.131 255.1 481.104 255.404 481.014 255.693C480.925 255.981 480.775 256.248 480.575 256.474C480.374 256.7 480.128 256.882 479.853 257.006C479.577 257.13 479.279 257.194 478.976 257.194C478.674 257.194 478.375 257.13 478.1 257.006C477.824 256.882 477.578 256.7 477.378 256.474C477.178 256.248 477.028 255.981 476.938 255.693C476.849 255.404 476.821 255.1 476.858 254.8C476.821 254.5 476.849 254.196 476.938 253.907C477.028 253.618 477.178 253.352 477.378 253.126C477.578 252.899 477.824 252.718 478.1 252.594C478.375 252.47 478.674 252.406 478.976 252.406C479.279 252.406 479.577 252.47 479.853 252.594C480.128 252.718 480.374 252.899 480.575 253.126C480.775 253.352 480.925 253.618 481.014 253.907C481.104 254.196 481.131 254.5 481.094 254.8ZM531.895 513.963C531.983 513.741 531.99 513.494 531.914 513.267C531.838 513.04 531.685 512.847 531.481 512.721C529.889 511.734 527.277 513.39 526.831 515.269C527.914 515.365 531.226 515.237 531.895 513.963Z" fill="black"/>
<path d="M524.315 492.911C522.245 488.529 519.916 484.275 517.34 480.171C517.198 479.962 516.981 479.815 516.734 479.761C516.487 479.707 516.229 479.75 516.013 479.88C515.796 480.011 515.638 480.22 515.571 480.463C515.504 480.707 515.533 480.967 515.652 481.19C517.799 484.964 519.662 488.892 521.225 492.943C517.672 493.329 514.293 494.687 511.46 496.868C508.628 499.048 506.45 501.967 505.167 505.303C503.884 508.639 503.544 512.265 504.186 515.782C504.827 519.298 506.425 522.57 508.804 525.239C497.783 529.527 486.127 531.96 474.31 532.437C474.099 532.476 473.908 532.589 473.77 532.755C473.633 532.92 473.557 533.129 473.557 533.344C473.557 533.56 473.633 533.768 473.77 533.934C473.908 534.1 474.099 534.212 474.31 534.252C486.91 534.52 499.43 532.2 511.097 527.436C513.484 529.33 516.283 530.634 519.268 531.244C522.253 531.855 525.339 531.753 528.277 530.948C531.216 530.143 533.923 528.657 536.18 526.611C538.437 524.565 540.181 522.016 541.269 519.17C542.357 516.325 542.76 513.263 542.445 510.233C542.129 507.202 541.105 504.289 539.453 501.729C537.802 499.168 535.571 497.033 532.941 495.495C530.311 493.958 527.356 493.062 524.315 492.879V492.911ZM520.27 522.34C519.951 520.206 519.824 518.04 519.442 515.97H514.76C514.473 517.849 514.473 519.729 514.187 521.608C514.17 521.742 514.127 521.871 514.06 521.988C513.994 522.105 513.904 522.208 513.798 522.291C513.691 522.374 513.57 522.435 513.44 522.471C513.31 522.506 513.174 522.516 513.04 522.499C512.906 522.483 512.777 522.44 512.66 522.373C512.542 522.306 512.439 522.217 512.357 522.111C512.274 522.004 512.213 521.883 512.177 521.753C512.141 521.623 512.131 521.487 512.148 521.353C512.148 519.251 513.9 505.874 514.25 503.995C514.696 501.351 516.098 501.128 516.894 501.224C518.55 501.415 518.996 503.135 519.346 504.409C520.27 507.817 522.531 518.2 523.105 521.64C523.359 523.359 520.557 524.06 520.27 522.34ZM534.571 519.888C529.443 523.455 522.977 519.187 525.016 514.25C526.321 511.065 531.386 508.9 533.519 512.212C533.776 512.747 533.902 513.336 533.888 513.929C533.873 514.523 533.718 515.105 533.435 515.627C533.152 516.149 532.75 516.596 532.261 516.933C531.772 517.269 531.21 517.485 530.621 517.563C529.564 517.702 528.493 517.702 527.436 517.563C527.839 518.008 528.313 518.385 528.838 518.677C532.023 520.015 534.157 517.626 534.794 518.964C534.843 519.099 534.848 519.245 534.808 519.383C534.768 519.521 534.685 519.642 534.571 519.728V519.888Z" fill="black"/>
<path d="M516.416 504.6C515.938 507.02 515.397 511.352 515.142 513.358H518.932C518.582 511.734 517.658 507.18 517.021 504.695C516.926 504.281 516.48 504.186 516.416 504.6ZM240.468 456.92C238.557 455.774 234.352 455.646 234.098 458.162C233.907 459.564 234.098 465.169 234.098 466.666C235.551 466.624 236.98 466.283 238.295 465.663C239.61 465.044 240.783 464.16 241.742 463.067C242.1 462.593 242.353 462.048 242.484 461.468C242.614 460.888 242.619 460.287 242.499 459.705C242.378 459.123 242.134 458.573 241.784 458.093C241.434 457.613 240.985 457.213 240.468 456.92Z" fill="black"/>
<path d="M294.899 491.541C286.096 488.317 277.482 484.595 269.101 480.394C270.774 476.974 271.757 473.259 271.994 469.46C272.231 465.661 271.718 461.852 270.483 458.251C269.248 454.65 267.317 451.328 264.798 448.474C262.279 445.619 259.223 443.289 255.803 441.616C252.384 439.943 248.669 438.96 244.87 438.723C241.07 438.486 237.262 438.999 233.661 440.234C230.06 441.469 226.738 443.401 223.883 445.919C221.029 448.438 218.699 451.494 217.026 454.914C213.173 452.862 209.43 450.608 205.815 448.161C204.828 447.524 203.904 449.021 204.828 449.69C209.127 452.875 212.726 455.105 216.071 457.143C204.636 490.522 249.067 511.893 267.986 482.337C276.289 487.051 285.177 490.649 294.422 493.038C294.608 493.066 294.799 493.026 294.959 492.926C295.119 492.826 295.238 492.672 295.296 492.492C295.353 492.313 295.345 492.118 295.272 491.944C295.2 491.77 295.067 491.627 294.899 491.541ZM243.939 466.061C241.36 468.533 237.956 469.963 234.384 470.074V478.992C234.384 479.355 234.24 479.704 233.983 479.961C233.726 480.218 233.378 480.362 233.015 480.362C232.652 480.362 232.303 480.218 232.046 479.961C231.79 479.704 231.645 479.355 231.645 478.992C231.645 477.463 231.104 464.819 231.072 463.8C231.072 460.615 229.862 455.168 234.257 453.417C242.347 450.009 249.991 458.959 243.78 466.029L243.939 466.061ZM258.59 475.616C258.144 480.712 251.297 482.91 247.22 479.884C246.929 479.655 246.734 479.326 246.672 478.961C246.609 478.596 246.684 478.221 246.882 477.908C247.08 477.596 247.387 477.367 247.744 477.268C248.1 477.168 248.481 477.203 248.812 477.368C249.734 477.986 250.843 478.263 251.947 478.153C253.051 478.042 254.082 477.551 254.864 476.763C255.819 475.775 255.437 473.801 253.877 474.024C252.667 474.369 251.405 474.499 250.15 474.406C249.514 474.258 248.925 473.955 248.434 473.523C247.944 473.092 247.569 472.545 247.342 471.933C247.114 471.321 247.043 470.662 247.132 470.015C247.222 469.368 247.471 468.754 247.857 468.227C248.394 467.467 249.104 466.845 249.927 466.41C250.75 465.976 251.663 465.741 252.594 465.726C253.525 465.71 254.446 465.914 255.283 466.321C256.12 466.728 256.849 467.326 257.412 468.068C258.367 469.31 256.393 470.807 255.437 469.597C254.992 469.079 254.403 468.706 253.745 468.525C253.087 468.343 252.39 468.362 251.743 468.577C248.972 469.597 250.723 472.336 252.571 471.762C252.985 471.635 258.845 470.711 258.431 475.489L258.59 475.616ZM516.48 369.683C515.448 372.038 514.267 374.326 512.944 376.531C510.449 373.063 507.218 370.189 503.482 368.116C499.746 366.043 495.598 364.822 491.335 364.539C487.072 364.256 482.8 364.92 478.823 366.482C474.846 368.044 471.264 370.465 468.333 373.574C465.401 376.682 463.193 380.4 461.867 384.461C460.541 388.522 460.128 392.827 460.66 397.066C461.192 401.305 462.654 405.374 464.942 408.982C467.231 412.59 470.288 415.648 473.896 417.936C470.711 420.77 464.118 425.803 462.781 426.854L460.424 425.771C459.373 425.293 458.513 426.854 459.596 427.363C460.087 427.592 460.565 427.848 461.029 428.128C457.019 431.036 452.863 433.736 448.576 436.218C448.352 436.344 448.187 436.555 448.119 436.803C448.05 437.051 448.083 437.316 448.209 437.539C448.336 437.763 448.546 437.928 448.794 437.996C449.042 438.065 449.307 438.033 449.531 437.906C454.786 434.976 459.309 432.205 463.29 429.497C466.197 431.519 468.906 433.812 471.38 436.345C471.63 436.541 471.942 436.639 472.259 436.622C472.576 436.604 472.875 436.471 473.102 436.249C473.328 436.027 473.465 435.73 473.489 435.413C473.512 435.097 473.419 434.783 473.228 434.53C470.744 432.188 468.07 430.057 465.233 428.16C467.176 426.758 473.387 422.14 476.508 419.401C482.078 422.142 488.379 423.024 494.488 421.919C500.596 420.813 506.188 417.778 510.444 413.259C514.699 408.739 517.393 402.975 518.13 396.811C518.867 390.647 517.607 384.41 514.537 379.015C516.176 376.279 517.542 373.388 518.614 370.384C519.155 369.014 517.021 368.345 516.48 369.683ZM489.694 405.164C489.055 403.011 488.555 400.82 488.197 398.603L481.477 399.272C481.094 401.278 480.712 403.285 480.394 405.291C480.075 407.298 477.464 406.47 477.718 404.75C478.292 400.514 481.7 382.455 482.368 380.735C484.248 377.04 487.082 379.588 488.738 383.761C490.345 390.668 491.599 397.652 492.497 404.686C492.56 405.058 492.473 405.44 492.255 405.747C492.037 406.055 491.706 406.263 491.334 406.326C490.963 406.39 490.581 406.303 490.273 406.085C489.966 405.867 489.757 405.536 489.694 405.164ZM495.14 384.493C495.302 384.117 495.541 383.78 495.842 383.503C496.143 383.226 496.499 383.016 496.887 382.887C497.275 382.757 497.686 382.711 498.094 382.752C498.501 382.793 498.894 382.92 499.249 383.124C499.565 383.336 499.832 383.614 500.031 383.938C500.23 384.263 500.356 384.627 500.402 385.005C500.447 385.383 500.41 385.766 500.294 386.129C500.177 386.491 499.984 386.824 499.727 387.105C499.327 387.596 498.766 387.93 498.144 388.046C497.521 388.163 496.878 388.055 496.327 387.742C495.777 387.428 495.356 386.93 495.138 386.335C494.921 385.74 494.922 385.088 495.14 384.493ZM500.682 404.845C500.677 405.211 500.541 405.562 500.299 405.836C500.057 406.11 499.725 406.288 499.363 406.338C499.001 406.388 498.633 406.307 498.326 406.109C498.019 405.911 497.793 405.61 497.688 405.26C497.433 404.559 496.956 394.749 496.956 393.602C496.956 393.273 497.087 392.957 497.32 392.724C497.553 392.491 497.868 392.36 498.198 392.36C498.527 392.36 498.843 392.491 499.076 392.724C499.309 392.957 499.44 393.273 499.44 393.602C499.536 395.418 500.714 404.304 500.682 404.845Z" fill="black"/>
<path d="M482.114 396.118L487.656 395.513C487.101 391.629 486.162 387.81 484.853 384.111C484.12 387.296 482.783 392.965 482.114 396.118ZM175.175 533.296C172.5 534.889 174.697 539.22 178.36 537.596C178.36 535.494 178.169 533.933 178.105 533.201C177.645 532.981 177.139 532.875 176.629 532.891C176.119 532.908 175.62 533.047 175.175 533.296Z" fill="black"/>
<path d="M205.942 529.251C200.67 530.076 195.351 530.566 190.017 530.717C188.584 505.651 152.721 505.619 151.256 530.717C145.723 530.182 140.277 528.962 135.044 527.086C134.946 527.035 134.839 527.005 134.729 526.996C134.619 526.988 134.508 527.001 134.403 527.035C134.298 527.069 134.201 527.123 134.117 527.195C134.033 527.266 133.964 527.354 133.914 527.452C133.863 527.55 133.833 527.657 133.824 527.767C133.815 527.877 133.828 527.988 133.862 528.093C133.897 528.198 133.951 528.295 134.022 528.379C134.094 528.463 134.182 528.532 134.28 528.583C139.587 531.392 145.402 533.114 151.383 533.647C151.986 538.323 154.272 542.619 157.812 545.732C161.353 548.846 165.906 550.563 170.621 550.563C175.335 550.563 179.889 548.846 183.429 545.732C186.97 542.619 189.255 538.323 189.858 533.647C195.403 533.081 200.912 532.199 206.356 531.003C206.544 530.911 206.694 530.757 206.783 530.568C206.872 530.379 206.894 530.166 206.846 529.963C206.798 529.759 206.683 529.578 206.518 529.449C206.354 529.32 206.151 529.25 205.942 529.251ZM167.722 539.412C167.679 539.627 167.591 539.831 167.463 540.01C167.336 540.188 167.172 540.338 166.983 540.45C166.793 540.561 166.582 540.631 166.364 540.655C166.146 540.679 165.925 540.657 165.716 540.59C164.76 540.303 164.92 539.762 163.391 537.596C162.913 538.392 162.435 539.22 161.989 540.049C161.815 540.334 161.537 540.541 161.214 540.628C160.892 540.714 160.548 540.674 160.254 540.515C159.96 540.355 159.738 540.09 159.634 539.772C159.531 539.454 159.553 539.108 159.696 538.806C160.301 537.66 160.906 536.481 161.575 535.335C160.79 534.516 159.913 533.79 158.964 533.169C158.652 532.95 158.436 532.621 158.358 532.248C158.281 531.875 158.349 531.487 158.548 531.162C158.747 530.838 159.062 530.601 159.429 530.5C159.796 530.4 160.188 530.443 160.524 530.621C164.505 533.073 162.053 533.36 165.079 529.602C166.321 528.073 168.678 529.952 167.659 531.513C166.958 532.596 166.066 533.71 165.302 534.698C166.862 536.704 167.882 538.265 167.69 539.412H167.722ZM181.29 539.794C180.612 540.405 179.811 540.864 178.94 541.139C178.07 541.413 177.15 541.498 176.244 541.386C175.338 541.274 174.466 540.969 173.688 540.491C172.91 540.013 172.244 539.373 171.735 538.615C171.087 537.658 170.743 536.527 170.749 535.371C170.754 534.215 171.109 533.088 171.767 532.137C172.425 531.187 173.355 530.457 174.435 530.044C175.515 529.632 176.695 529.555 177.819 529.825C177.543 526.382 177.448 522.927 177.532 519.473C177.537 519.105 177.678 518.751 177.927 518.48C178.177 518.208 178.518 518.039 178.885 518.003C179.252 517.968 179.619 518.069 179.916 518.287C180.213 518.506 180.419 518.826 180.494 519.187C181.163 523.359 181.673 535.59 181.736 536.991C181.8 537.724 182.118 538.934 181.259 539.794H181.29ZM121.763 351.497C122.336 351.497 122.495 351.497 122.527 351.305C122.527 350.764 121.444 343.598 121.317 342.738C112.271 343.98 113.418 352.325 121.763 351.497Z" fill="black"/>
<path d="M144.281 321.303C140.505 321.82 136.761 322.554 133.069 323.5C130.1 320.617 126.481 318.491 122.516 317.302C118.552 316.114 114.359 315.898 110.294 316.673C106.228 317.448 102.409 319.19 99.1595 321.753C95.91 324.317 93.3257 327.625 91.6254 331.398C89.9251 335.172 89.1587 339.299 89.3912 343.431C89.6237 347.563 90.8481 351.579 92.9609 355.138C95.0738 358.697 98.0128 361.694 101.529 363.877C105.046 366.059 109.036 367.363 113.163 367.676C116.757 377.794 123.018 386.752 131.286 393.602C131.361 393.675 131.45 393.733 131.548 393.772C131.645 393.811 131.749 393.83 131.854 393.828C131.959 393.827 132.063 393.805 132.159 393.763C132.256 393.722 132.343 393.662 132.416 393.586C132.49 393.511 132.547 393.422 132.586 393.325C132.625 393.227 132.644 393.123 132.643 393.018C132.641 392.913 132.619 392.809 132.577 392.713C132.536 392.616 132.476 392.529 132.4 392.456C125.505 385.239 119.922 376.875 115.902 367.74C120.703 367.559 125.358 366.045 129.346 363.367C133.334 360.689 136.497 356.953 138.481 352.578C140.465 348.203 141.192 343.362 140.579 338.597C139.966 333.833 138.039 329.333 135.012 325.603C138.388 324.711 141.382 323.914 144.567 323.309C146.096 323.055 145.555 321.048 144.281 321.303ZM104.532 353.535V329.839C104.581 329.523 104.741 329.236 104.983 329.028C105.226 328.821 105.534 328.707 105.854 328.707C106.173 328.707 106.481 328.821 106.724 329.028C106.966 329.236 107.126 329.523 107.175 329.839C107.175 334.552 107.717 350.35 107.812 353.535C107.702 353.884 107.484 354.188 107.189 354.405C106.894 354.621 106.538 354.738 106.172 354.738C105.806 354.738 105.45 354.621 105.155 354.405C104.86 354.188 104.642 353.884 104.532 353.535ZM124.024 353.853C117.654 357.261 109.15 351.178 113.163 344.076C114.043 342.811 115.221 341.783 116.594 341.083C117.966 340.383 119.49 340.033 121.03 340.062C120.498 336.592 120.179 333.093 120.075 329.584C120.091 329.239 120.23 328.911 120.465 328.658C120.7 328.404 121.017 328.243 121.36 328.201C121.703 328.159 122.05 328.239 122.339 328.428C122.628 328.617 122.842 328.903 122.941 329.233C123.482 331.527 125.011 346.783 125.171 348.789C125.234 350.35 125.935 352.675 124.024 353.694V353.853Z" fill="black"/>
</svg>
