<svg width="64" height="64" viewBox="0 0 64 64" fill="none" xmlns="http://www.w3.org/2000/svg">
<path d="M20 23C24.4183 23 28 19.4183 28 15C28 10.5817 24.4183 7 20 7C15.5817 7 12 10.5817 12 15C12 19.4183 15.5817 23 20 23Z" fill="#497696"/>
<path d="M44 23C48.4183 23 52 19.4183 52 15C52 10.5817 48.4183 7 44 7C39.5817 7 36 10.5817 36 15C36 19.4183 39.5817 23 44 23Z" fill="#497696"/>
<path d="M12 37C15.866 37 19 33.866 19 30C19 26.134 15.866 23 12 23C8.13401 23 5 26.134 5 30C5 33.866 8.13401 37 12 37Z" fill="#497696"/>
<path d="M52 37C55.866 37 59 33.866 59 30C59 26.134 55.866 23 52 23C48.134 23 45 26.134 45 30C45 33.866 48.134 37 52 37Z" fill="#497696"/>
<path d="M32 55C38.6274 55 44 48.2843 44 40C44 31.7157 38.6274 25 32 25C25.3726 25 20 31.7157 20 40C20 48.2843 25.3726 55 32 55Z" fill="#497696"/>
</svg>
